<svg width="15" height="15" viewBox="0 0 15 15" fill="none" xmlns="http://www.w3.org/2000/svg">
<g clip-path="url(#clip0_157_216)">
<path fill-rule="evenodd" clip-rule="evenodd" d="M11.25 7.5C10.7325 7.5 10.3125 7.08 10.3125 6.5625C10.3125 6.045 10.7325 5.625 11.25 5.625C11.7675 5.625 12.1875 6.045 12.1875 6.5625C12.1875 7.08 11.7675 7.5 11.25 7.5ZM7.5 7.5C6.9825 7.5 6.5625 7.08 6.5625 6.5625C6.5625 6.045 6.9825 5.625 7.5 5.625C8.0175 5.625 8.4375 6.045 8.4375 6.5625C8.4375 7.08 8.0175 7.5 7.5 7.5ZM3.75 7.5C3.2325 7.5 2.8125 7.08 2.8125 6.5625C2.8125 6.045 3.2325 5.625 3.75 5.625C4.2675 5.625 4.6875 6.045 4.6875 6.5625C4.6875 7.08 4.2675 7.5 3.75 7.5ZM7.5 0C3.35812 0 0 2.93859 0 6.5625C0 8.63391 1.09922 10.4784 2.8125 11.6808V15L6.09797 13.0064C6.55266 13.0814 7.02047 13.125 7.5 13.125C11.6419 13.125 15 10.1869 15 6.5625C15 2.93859 11.6419 0 7.5 0Z" fill="white"/>
</g>
<defs>
<clipPath id="clip0_157_216">
<rect width="15" height="15" fill="white"/>
</clipPath>
</defs>
</svg>
