<svg width="30" height="31" viewBox="0 0 30 31" fill="none" xmlns="http://www.w3.org/2000/svg">
<g clip-path="url(#clip0_174_12)">
<path d="M21.6251 12.6407C22.0393 12.0884 21.9273 11.3049 21.3751 10.8907C20.8228 10.4765 20.0393 10.5884 19.6251 11.1407L16.7398 14.9877L14.0089 12.2568C13.7527 12.0006 13.3979 11.8682 13.0364 11.8938C12.6749 11.9195 12.3425 12.1008 12.1251 12.3907L8.37507 17.3907C7.96086 17.9429 8.07279 18.7264 8.62507 19.1407C9.17736 19.5549 9.96086 19.443 10.3751 18.8907L13.2603 15.0437L15.9912 17.7746C16.2474 18.0308 16.6022 18.1632 16.9637 18.1376C17.3252 18.1118 17.6577 17.9306 17.8751 17.6407L21.6251 12.6407Z" fill="#0F0F0F"/>
<path fill-rule="evenodd" clip-rule="evenodd" d="M15 29.3906C13.4705 29.3906 12.6243 29.2265 11.25 28.7656L8.61804 30.0816C6.95578 30.9127 5 29.704 5 27.8455V25.0156C2.30819 22.5056 1.25 19.6115 1.25 15.6406C1.25 8.04671 7.40609 1.89062 15 1.89062C22.5939 1.89062 28.75 8.04671 28.75 15.6406C28.75 23.2345 22.5939 29.3906 15 29.3906ZM7.5 23.9285L6.70494 23.1871C4.61359 21.2371 3.75 19.057 3.75 15.6406C3.75 9.42742 8.7868 4.39062 15 4.39062C21.2132 4.39062 26.25 9.42742 26.25 15.6406C26.25 21.8539 21.2132 26.8906 15 26.8906C13.7679 26.8906 13.19 26.7794 12.0449 26.3954L11.0606 26.0652L7.5 27.8455V23.9285Z" fill="#0F0F0F"/>
</g>
<defs>
<clipPath id="clip0_174_12">
<rect width="30" height="30" fill="white" transform="translate(0 0.640625)"/>
</clipPath>
</defs>
</svg>
