<svg width="40" height="40" viewBox="0 0 40 40" fill="none" xmlns="http://www.w3.org/2000/svg">
<path d="M33.7449 16.1225C33.6649 13.3637 32.3899 11.0962 30.5862 9.70999C28.2662 7.92499 25.0674 7.59749 22.4087 9.54499C21.5312 10.19 20.7099 11.0825 19.9999 12.255C19.2899 11.0825 18.4699 10.19 17.5912 9.54624C14.9324 7.59749 11.7349 7.92499 9.41369 9.71124C7.60869 11.0975 6.33494 13.365 6.25494 16.1237C6.21119 17.5887 6.43619 19.2237 7.23994 20.8775C8.50244 23.4737 14.4337 29.2462 19.9537 34.2312L19.9974 34.2787L19.9999 34.2762L20.0024 34.2787L20.0474 34.2312C25.5662 29.2475 31.4962 23.475 32.7599 20.8775C33.5649 19.2237 33.7874 17.5875 33.7449 16.1225Z" fill="white"/>
</svg>
