<svg width="30" height="31" viewBox="0 0 30 31" fill="none" xmlns="http://www.w3.org/2000/svg">
<path fill-rule="evenodd" clip-rule="evenodd" d="M9.05946 5.72826C10.5372 3.97359 12.6306 3.14062 15 3.14062C17.424 3.14062 19.505 4.1208 20.9548 5.90715C22.2427 7.49386 22.9715 9.637 23.1032 12.1284C23.1397 12.1337 23.1781 12.1393 23.2186 12.1452L23.2443 12.1489C23.456 12.1796 23.7098 12.2169 23.9737 12.268C24.9505 12.4572 26.6163 12.9344 27.1902 14.723C27.4783 15.6214 27.3336 16.4543 26.8305 17.1139C26.396 17.6835 25.7756 18.0119 25.333 18.2113C25.112 18.3109 24.893 18.396 24.7085 18.4662C25.1402 19.6364 25.8926 20.8404 26.7251 21.9309C27.5091 22.9579 27.3017 24.26 26.8965 25.1081C26.4906 25.9577 25.6123 26.9294 24.3355 26.9848C23.6128 27.0161 22.8541 27.0901 22.0988 27.2275C21.7577 27.2896 21.3551 27.4264 20.8548 27.633C20.5566 27.7563 20.283 27.8781 19.9877 28.0098C19.7531 28.1143 19.5047 28.2249 19.2192 28.3472C18.0431 28.8512 16.5997 29.3906 15 29.3906C13.4001 29.3906 11.9567 28.8512 10.7806 28.3472C10.4952 28.2249 10.2468 28.1143 10.0122 28.0098C9.71684 27.8781 9.44326 27.7563 9.14498 27.633C8.64478 27.4264 8.24222 27.2896 7.90106 27.2275C7.14581 27.0901 6.38702 27.0161 5.66439 26.9848C4.38752 26.9294 3.50922 25.9577 3.10338 25.1081C2.69819 24.26 2.49076 22.9579 3.27479 21.9309C4.11256 20.8335 4.86913 19.6211 5.29951 18.4441C5.13276 18.377 4.93717 18.2966 4.73887 18.2039C4.30584 18.0013 3.71851 17.678 3.28558 17.1355C2.80069 16.5279 2.58752 15.7444 2.77686 14.8469C3.18207 12.926 4.98924 12.446 5.94494 12.2667C6.21628 12.2157 6.47937 12.1786 6.70106 12.1478C6.71587 12.1458 6.73042 12.1437 6.74474 12.1418C6.79773 12.1344 6.84742 12.1275 6.89424 12.1209C7.01851 9.46431 7.74219 7.29236 9.05946 5.72826ZM10.9717 7.3387C10.0191 8.46971 9.37493 10.289 9.37493 12.962V13.0935L9.34759 13.222C9.20832 13.8771 8.70543 14.1826 8.45552 14.3003C8.19217 14.4242 7.90916 14.4857 7.70899 14.5229C7.51401 14.5591 7.29674 14.5892 7.10221 14.6161C7.08278 14.6187 7.06357 14.6215 7.04463 14.6241C6.82294 14.6549 6.61278 14.685 6.40614 14.7238C5.44996 14.9033 5.26984 15.1409 5.22302 15.3629C5.18969 15.5209 5.21847 15.5526 5.23504 15.5709C5.23672 15.5727 5.23963 15.5761 5.23963 15.5761C5.30627 15.6596 5.46627 15.784 5.79831 15.9394C5.95386 16.0121 6.11739 16.0787 6.29933 16.1515C6.31377 16.1574 6.32853 16.1632 6.34357 16.1693C6.50197 16.2326 6.69099 16.3081 6.85804 16.3864C7.02159 16.463 7.29587 16.6003 7.52698 16.822C7.79691 17.0809 8.12429 17.5863 7.96597 18.2515C7.51027 20.1663 6.36066 22.0084 5.26313 23.4462C5.25916 23.4536 5.24279 23.4905 5.24311 23.5776C5.24353 23.6969 5.27747 23.8595 5.35918 24.0305C5.44081 24.2014 5.54741 24.3331 5.64383 24.4123C5.72318 24.4774 5.76798 24.4864 5.77386 24.4872C6.58771 24.5225 7.46179 24.6065 8.34881 24.768C8.95304 24.878 9.54972 25.0952 10.0998 25.3226C10.403 25.4479 10.7514 25.6025 11.0897 25.7526C11.3261 25.8575 11.5577 25.9604 11.7654 26.0494C12.8885 26.5306 13.9372 26.8906 15 26.8906C16.0627 26.8906 17.1113 26.5306 18.2345 26.0494C18.4422 25.9604 18.6737 25.8575 18.9102 25.7526C19.2485 25.6025 19.5968 25.4479 19.9001 25.3226C20.4501 25.0952 21.0468 24.878 21.6511 24.768C22.5381 24.6065 23.4122 24.5225 24.226 24.4872C24.232 24.4862 24.2767 24.4774 24.3561 24.4123C24.4525 24.3331 24.5591 24.2014 24.6407 24.0305C24.7223 23.8595 24.7563 23.6969 24.7567 23.5776C24.7572 23.4614 24.7278 23.4347 24.738 23.4479C23.6401 22.0099 22.4897 20.167 22.0338 18.2515C21.8646 17.5404 22.2516 17.026 22.5176 16.7896C22.7541 16.5794 23.0326 16.4486 23.2017 16.3742C23.3695 16.3004 23.5598 16.2283 23.7227 16.1665C23.7433 16.1586 23.7635 16.151 23.7831 16.1436C23.9733 16.0712 24.145 16.0045 24.3061 15.9319C24.6427 15.7802 24.787 15.6645 24.8366 15.6054C24.8348 15.5849 24.8288 15.5466 24.8097 15.4867C24.6961 15.1325 24.3746 14.8921 23.4983 14.7224C23.299 14.6838 23.098 14.6539 22.8855 14.623C22.8696 14.6206 22.8535 14.6184 22.8371 14.616C22.6493 14.5889 22.4368 14.5581 22.2458 14.5206C22.0523 14.4827 21.7725 14.4189 21.5103 14.2885C21.2472 14.1576 20.785 13.8464 20.6522 13.222L20.625 13.0935V12.962C20.625 10.5255 19.9907 8.68628 19.0137 7.48261C18.0573 6.30422 16.701 5.64062 15 5.64062C13.2443 5.64062 11.9001 6.23624 10.9717 7.3387Z" fill="black"/>
</svg>
