<svg width="30" height="31" viewBox="0 0 30 31" fill="none" xmlns="http://www.w3.org/2000/svg">
<path d="M24.915 5.6683C22.3931 3.14643 18.9094 1.58643 15.0609 1.58643C7.365 1.58643 1.125 7.82549 1.125 15.5224C1.125 18.0836 1.81594 20.4827 3.02062 22.5452L2.985 22.4795L1.00781 29.7002L8.39438 27.7624C10.3172 28.8302 12.6112 29.4583 15.0525 29.4583H15.0581C22.7541 29.4555 28.9912 23.2155 28.9912 15.5196C28.9912 11.673 27.4331 8.19111 24.9141 5.66924L24.915 5.6683ZM15.0581 27.1042H15.0534C12.8794 27.1042 10.8441 26.5042 9.10687 25.4608L9.15938 25.4899L8.73656 25.2395L4.35375 26.3899L5.52281 22.1158L5.24719 21.678C4.13625 19.9324 3.47625 17.8052 3.47625 15.5233C3.47625 9.12768 8.66156 3.94236 15.0572 3.94236C21.4528 3.94236 26.6381 9.12768 26.6381 15.5233C26.6381 21.9189 21.4547 27.1042 15.0581 27.1042ZM21.4106 18.4314C21.0628 18.257 19.3509 17.4161 19.0322 17.2989C18.7125 17.1827 18.48 17.1255 18.2475 17.4742C18.0169 17.8221 17.3494 18.6058 17.1459 18.8383C16.9434 19.0717 16.7391 19.0999 16.3912 18.9264C15.3131 18.4895 14.3869 17.9074 13.5816 17.1902L13.5909 17.1986C12.8419 16.5049 12.1997 15.7108 11.6813 14.8352L11.655 14.7864C11.4525 14.4386 11.6334 14.2502 11.8069 14.0767C11.9634 13.9211 12.1556 13.6699 12.3291 13.4674C12.4659 13.2996 12.5831 13.1074 12.6722 12.9011L12.6778 12.8852C12.7181 12.8036 12.7416 12.7089 12.7416 12.6077C12.7416 12.4849 12.7069 12.3705 12.6469 12.273L12.6488 12.2758C12.5606 12.1014 11.865 10.3877 11.5753 9.69018C11.2922 9.01143 11.0044 9.10424 10.7916 9.09299C10.5891 9.08361 10.3566 9.08174 10.1241 9.08174C9.75375 9.09111 9.42469 9.25799 9.19781 9.5158L9.19688 9.51768C8.445 10.2311 7.97813 11.2371 7.97813 12.3517C7.97813 12.3761 7.97813 12.4014 7.97906 12.4258V12.4221C8.10187 13.7974 8.6175 15.0321 9.41063 16.038L9.39937 16.0239C10.9031 18.2542 12.9075 20.0383 15.2597 21.2402L15.3478 21.2805C15.8616 21.513 16.5197 21.7614 17.1928 21.9742L17.3325 22.0127C17.7469 22.1439 18.2241 22.2199 18.7191 22.2199C19.0031 22.2199 19.2825 22.1946 19.5525 22.1467L19.5234 22.1505C20.5256 21.9414 21.3572 21.3367 21.8644 20.5108L21.8728 20.4949C22.0275 20.1517 22.1175 19.7514 22.1175 19.3305C22.1175 19.1571 22.1025 18.9874 22.0734 18.8224L22.0763 18.8402C21.99 18.6949 21.7575 18.6086 21.4088 18.4333L21.4106 18.4314Z" fill="black"/>
</svg>
